<?xml version="1.0" encoding="UTF-8"?>
<svg id="Layer_1" xmlns="http://www.w3.org/2000/svg" width="72" height="72" viewBox="0 0 72 72">
  <defs>
    <style>
      .cls-1 {
        fill: #ea5b0c;
      }
    </style>
  </defs>
  <path class="cls-1" d="M70.67,20.32c-1.72-6.41-5.83-11.77-11.58-15.09-5.75-3.32-12.44-4.2-18.86-2.48-1.47.4-2.89.93-4.24,1.57-3.24-1.55-6.86-2.42-10.68-2.42C11.62,1.9.47,13.05.47,26.76c0,8.47,4.26,15.95,10.74,20.44.28,3.65,1.38,7.21,3.26,10.47,3.32,5.75,8.68,9.86,15.09,11.58,2.14.57,4.31.86,6.47.86,4.31,0,8.56-1.13,12.39-3.34,5.75-3.32,9.86-8.68,11.58-15.09.4-1.48.65-2.98.77-4.48,3-2.07,5.55-4.77,7.42-8.02,3.32-5.75,4.2-12.45,2.48-18.86ZM45.98,22.52c-1.15-.5-2.33-.95-3.56-1.28-5.52-1.48-11.25-1.03-16.4,1.24.45-2.18,1.24-4.29,2.38-6.28,1.85-3.21,4.46-5.8,7.58-7.62,5.06,2.98,8.79,8,10.01,13.93ZM46.4,26.92c-.06,7.67-4.24,14.36-10.43,18.01-4.8-2.82-8.24-7.33-9.68-12.71-.47-1.76-.69-3.54-.7-5.31,3.21-1.82,6.77-2.76,10.37-2.76,1.83,0,3.68.24,5.49.73,1.76.47,3.41,1.17,4.95,2.05ZM11.99,38.81c-.32,1.21-.56,2.43-.7,3.65-4.33-3.87-7.07-9.47-7.07-15.71C4.23,15.12,13.69,5.66,25.32,5.66c2.32,0,4.54.39,6.62,1.08-2.73,2.01-5.05,4.56-6.8,7.59-1.88,3.26-2.98,6.83-3.26,10.48-4.86,3.34-8.35,8.24-9.89,14ZM15.62,39.79c1.08-4.04,3.29-7.58,6.35-10.29.14,1.24.37,2.47.7,3.69,1.48,5.52,4.74,10.25,9.28,13.58-2.09.69-4.31,1.08-6.63,1.08-3.78,0-7.33-1.01-10.4-2.77.02-1.77.23-3.54.7-5.3ZM56.37,50.7c-1.46,5.44-4.95,9.99-9.83,12.81s-10.56,3.57-16,2.11c-5.44-1.46-9.99-4.95-12.81-9.83-1.14-1.98-1.93-4.1-2.38-6.28,3.05,1.34,6.43,2.1,9.97,2.1,3.82,0,7.44-.87,10.68-2.42,3.35,1.6,6.97,2.43,10.63,2.43,2.16,0,4.33-.28,6.47-.86,1.22-.33,2.39-.77,3.53-1.26-.08.4-.15.81-.26,1.21ZM52.13,47.13c-4.05,1.08-8.22.94-12.11-.35,5.45-4.02,9.21-10.2,9.99-17.28,1.66,1.48,3.1,3.22,4.25,5.2,1.85,3.21,2.79,6.77,2.81,10.38-1.54.87-3.19,1.57-4.95,2.04ZM64.94,37.3c-1.14,1.98-2.58,3.71-4.24,5.19-.37-3.37-1.44-6.65-3.18-9.67-1.88-3.25-4.43-5.96-7.43-8.02-.58-7.39-4.4-13.88-10.04-18.04.39-.13.77-.27,1.16-.37,1.82-.49,3.66-.73,5.49-.73,3.65,0,7.26.96,10.51,2.83,4.88,2.82,8.37,7.37,9.83,12.81,1.46,5.44.71,11.13-2.11,16Z"/>
</svg>