<?xml version="1.0" encoding="UTF-8"?>
<svg id="Layer_1" xmlns="http://www.w3.org/2000/svg" width="360" height="70" viewBox="0 0 360 70">
  <defs>
    <style>
      .cls-1 {
        fill: #ea5b0c;
      }
    </style>
  </defs>
  <path class="cls-1" d="M352.52,16.82l-3.36,13.22h-.17l-3.23-13.22h-5.53l6.21,19.74v12.45h4.85v-12.41l6.21-19.78h-4.98ZM74.36,27.71c.17-1.14.26-2.58.26-3.98,0-5.51-3.02-7.45-7.28-7.45s-7.83,2.37-7.83,8.73v16.05c0,6.35,3.45,8.51,7.79,8.51s7.32-1.91,7.32-7.45c0-1.99-.13-3.05-.3-4.02l-4,.34c.17.76.26,1.69.26,2.92,0,3.09-1.02,4.11-2.94,4.11-2.25,0-3.23-1.4-3.23-3.51v-18.09c0-1.65.89-3.47,3.23-3.47,1.96,0,2.89.93,2.89,4.15,0,.93-.09,2.03-.26,2.88l4.08.3ZM13.65,41.56c0,2.41-.85,4.07-3.11,4.07s-3.15-1.74-3.15-3.77v-17.54c0-2.37.89-3.9,3.02-3.9,2.3,0,3.15.89,3.15,4.24,0,1.23-.04,2.03-.3,2.97l4.08.3c.17-.89.34-2.37.34-3.73,0-5.34-2.77-7.92-7.19-7.92s-8,2.29-8,8.47v16.39c0,6.06,2.55,8.39,7.02,8.39,3.15,0,4.76-1.95,5.53-3.09h.17l1.45,2.58h1.87v-15.25h-4.89v7.79ZM201.49,16.27c-4.38,0-8.21,2.29-8.21,8.43v16.56c0,5.89,3.79,8.26,8.21,8.26s8.08-2.37,8.08-8.26v-16.56c0-6.23-3.7-8.43-8.08-8.43ZM204.64,41.81c0,2.24-1.19,3.64-3.15,3.64s-3.32-1.4-3.32-3.68v-17.71c0-2.37,1.32-3.6,3.28-3.6,1.83,0,3.19,1.31,3.19,3.6v17.75ZM23.56,49.01h4.89v-13.55h7.02v-4.15h-7.02v-10.38h8.13v-4.11h-13.02v32.19ZM44.45,23.6v-.3c0-2.16,1.45-3.01,3.19-3.01,2,0,3.15.97,3.15,3.85,0,1.14-.13,2.37-.25,2.97l4,.25c.17-.97.3-2.58.3-3.69,0-4.36-2.17-7.41-7.27-7.41-5.36,0-8,3.69-8,7.33v.34c0,3.81,2.81,7.16,6.04,10.25,3.79,3.64,4.85,5.08,4.85,7.37v.55c0,2.2-1.23,3.35-3.32,3.35-1.92,0-3.4-1.23-3.4-3.9,0-1.14.13-2.24.34-3.13l-4-.25c-.21,1.06-.38,2.71-.38,3.6,0,5.08,2.68,7.75,7.53,7.75,4.59,0,8.13-2.97,8.13-7.79v-.38c0-3.26-1.32-5.97-6.81-11.44-3.06-3.05-4.08-4.32-4.08-6.31ZM322.4,20.93h5.66v28.08h4.89v-28.08h5.66v-4.11h-16.21v4.11ZM148.89,5.13c-5.69-3.27-12.33-4.14-18.68-2.45-1.46.39-2.86.92-4.2,1.55-3.21-1.53-6.79-2.38-10.58-2.38-13.57,0-24.61,10.99-24.61,24.51,0,8.35,4.22,15.74,10.65,20.17.27,3.53,1.32,7.05,3.22,10.32,3.29,5.67,8.6,9.72,14.95,11.42,2.12.57,4.27.85,6.41.85,4.27,0,8.48-1.11,12.27-3.29,5.69-3.27,9.77-8.56,11.47-14.88.39-1.46.64-2.94.76-4.42,2.97-2.04,5.49-4.7,7.35-7.91,6.79-11.7,2.75-26.72-9.01-33.48ZM135.9,22.16c-6.15-2.68-13.31-2.84-19.77-.02.45-2.15,1.22-4.24,2.36-6.19,1.83-3.16,4.42-5.72,7.5-7.52,5.01,2.94,8.7,7.88,9.91,13.72ZM136.31,26.52c-.06,7.56-4.2,14.17-10.33,17.76-4.75-2.78-8.16-7.23-9.59-12.54-.47-1.73-.68-3.49-.7-5.24,3.18-1.8,6.7-2.72,10.27-2.72,1.81,0,3.64.24,5.44.72,1.74.46,3.37,1.16,4.9,2.02ZM101.56,41.86c-4.29-3.81-7.02-9.34-7.02-15.51,0-11.47,9.37-20.8,20.89-20.8,2.29,0,4.5.38,6.56,1.07-2.7,1.98-5,4.5-6.73,7.48-1.86,3.21-2.95,6.73-3.23,10.32-6.03,4.14-9.69,10.58-10.47,17.44ZM112.11,29.06c.14,1.22.37,2.44.69,3.64,1.46,5.44,4.69,10.11,9.19,13.39-2.07.68-4.27,1.07-6.57,1.07-3.74,0-7.25-1-10.29-2.72.05-5.78,2.5-11.42,6.97-15.38ZM146.18,49.97c-1.44,5.37-4.9,9.85-9.73,12.63s-10.46,3.52-15.85,2.08c-5.39-1.44-9.89-4.88-12.69-9.69-1.15-1.98-1.91-4.07-2.35-6.19,3.02,1.32,6.36,2.06,9.87,2.06,3.78,0,7.37-.86,10.58-2.38,3.32,1.58,6.9,2.39,10.53,2.39,2.14,0,4.29-.28,6.41-.85,1.21-.32,2.37-.76,3.49-1.25-.08.4-.15.8-.26,1.19ZM141.99,46.45c-4.01,1.07-8.15.93-11.99-.35,5.4-3.96,9.12-10.06,9.9-17.04,1.64,1.46,3.07,3.17,4.21,5.13,1.84,3.17,2.77,6.68,2.79,10.24-1.53.86-3.16,1.55-4.9,2.02ZM154.67,36.76c-1.13,1.95-2.56,3.66-4.2,5.12-.37-3.32-1.42-6.56-3.15-9.54-1.89-3.26-4.43-5.93-7.36-7.93-.58-7.28-4.36-13.67-9.94-17.77.38-.13.76-.26,1.15-.37,5.39-1.44,11.02-.7,15.85,2.08,4.83,2.78,8.29,7.26,9.73,12.63,1.44,5.37.7,10.97-2.09,15.78ZM189.03,27.71c.17-1.14.26-2.58.26-3.98,0-5.51-3.02-7.45-7.28-7.45s-7.83,2.37-7.83,8.73v16.05c0,6.35,3.45,8.51,7.79,8.51s7.32-1.91,7.32-7.45c0-1.99-.13-3.05-.3-4.02l-4,.34c.17.76.26,1.69.26,2.92,0,3.09-1.02,4.11-2.94,4.11-2.25,0-3.23-1.4-3.23-3.51v-18.09c0-1.65.89-3.47,3.23-3.47,1.96,0,2.89.93,2.89,4.15,0,.93-.09,2.03-.26,2.88l4.08.3ZM226.3,38.85h-.26l-4.81-22.03h-6.64v32.19h4.38v-21.73h.17l5.15,21.73h3.4l5.32-21.69h.21v21.69h4.85V16.82h-6.76l-5.02,22.03ZM283.43,41.77c0,1.86-.98,3.56-3.23,3.56-2.13,0-3.53-1.4-3.53-3.51v-24.99h-4.89v24.74c0,4.96,3.45,7.96,8.3,7.96s8.04-3.01,8.04-8.01v-24.69h-4.68v24.95ZM254.89,38.85h-.26l-4.81-22.03h-6.64v32.19h4.38v-21.73h.17l5.15,21.73h3.4l5.32-21.69h.21v21.69h4.85V16.82h-6.76l-5.02,22.03ZM304.62,35.04h-.17l-6.51-18.21h-4.72v32.19h4.38v-20.08h.17l7.1,20.08h4.13V16.82h-4.38v18.21ZM314.11,49.01h4.89V16.82h-4.89v32.19Z"/>
</svg>